<?xml version="1.0" encoding="UTF-8"?>
<svg id="Layer_1" data-name="Layer 1" xmlns="http://www.w3.org/2000/svg" viewBox="0 0 738.81 737.44">
  <defs>
    <style>
      .cls-1 {
        fill: #fff;
      }
    </style>
  </defs>
  <path class="cls-1" d="M278.59,707c-.95,6.34-10.59,14.54-16.91,14.35-8.97-.27-37.45-12.82-46.73-17.26C2.73,602.49-58.73,326.09,93.94,144.83,247.23-37.17,532.37-22.79,667.28,173.01c121.18,175.87,63.58,418.36-122.49,520.44-15.52,8.52-45.56,24.41-62.16,27.51-7.07,1.32-16.95-4.52-20.71-9.88l-1.37-129c-.03-17.76-16.26-29.14-19-45.51,45.19-5.14,93.37-20.77,123.55-56.4,41.22-48.69,48.44-139.93,17.43-195.24-4.18-7.45-13.97-17.71-15.19-25.66-1.02-6.65,2.62-13.02,3.22-19.43,1.56-16.41.47-55.6-7.56-69.83-5.41-9.59-27.31-3.62-36.18-1.07-23.38,6.71-45.89,21.1-66.68,33.27-13.86-4.4-29.22-7.87-43.72-9.2-6.15-.56-12.82.35-19.05.03-38.86-1.97-78.33-1.19-116.43,7.8-25.55-12.05-54.09-33.23-83.15-34.99-7.32-.44-14.37-.9-18.61,5.79-8.06,12.74-9.02,50.05-7.84,65.46.48,6.32,4.37,17.68,3.8,22.74-.73,6.49-17.87,27.18-22.19,36.31-18.51,39.05-13.41,117.39,5.63,156.04,23.54,47.77,64.52,67.94,114.27,79.92,6.86,1.65,21.15,2.44,26.5,4.73,1.34.57,2.7,1.29,2.23,2.97-11.33,8.49-16.51,41.14-24.42,47.59-7.8,6.36-36.69,7.11-46.75,6.16-43.94-4.14-56.67-60.63-94.1-72.94-11-3.62-26.12-5.73-32.52,5.75,12.49,14.42,29.21,26.64,40.12,42.32,13.01,18.68,21.97,47.61,42.44,59.41,27.46,15.82,61.91,10.95,92.23,10.29v68.58Z"/>
</svg>