<?xml version="1.0" encoding="UTF-8"?>
<svg version="1.1" xmlns="http://www.w3.org/2000/svg" width="1816" height="1798">
<path d="M0 0 C4.3560648 2.02728412 8.53533566 4.36916439 12.71484375 6.734375 C13.65424805 7.26546875 14.59365234 7.7965625 15.56152344 8.34375 C22.17189239 12.10055488 28.74604433 15.91805961 35.3125 19.75097656 C40.72849888 22.90823653 46.15903501 26.04018035 51.58984375 29.171875 C52.65493164 29.78675781 53.72001953 30.40164062 54.81738281 31.03515625 C63.40258446 35.98805819 72.00962995 40.9020439 80.61956787 45.81173706 C89.65956083 50.96854108 98.66009696 56.18981269 107.64160156 61.44775391 C115.26390153 65.90353844 122.92015686 70.29834646 130.58984375 74.671875 C145.06434744 82.92603136 159.49706221 91.25154872 173.92382812 99.58886719 C177.1455265 101.45040172 180.36755454 103.31136339 183.58984375 105.171875 C184.65589844 105.78740234 185.72195313 106.40292969 186.8203125 107.03710938 C194.22354068 111.30751891 201.64158843 115.55129468 209.06582642 119.78500366 C218.69633515 125.27809303 228.31495358 130.79127354 237.90234375 136.359375 C239.34407959 137.19287476 239.34407959 137.19287476 240.81494141 138.04321289 C261.051934 149.83288384 261.051934 149.83288384 263.71484375 159.734375 C263.99576511 162.78818079 263.98973324 165.82534839 263.97655678 168.89042473 C263.98055284 169.80738121 263.9845489 170.72433769 263.98866606 171.66908073 C263.99966493 174.75225034 263.99643554 177.83524121 263.99331665 180.91842651 C263.99831811 183.14687431 264.00419346 185.37532029 264.01086938 187.6037637 C264.02670153 193.73566513 264.03010184 199.86752079 264.03151798 205.99944019 C264.03482777 211.93031748 264.04747893 217.86117267 264.05991785 223.7920362 C264.08504013 235.92447128 264.10090393 248.05690199 264.11149979 260.18935776 C264.12202195 272.20282812 264.13665384 284.21628188 264.15678024 296.22974014 C264.15802911 296.97656862 264.15927798 297.7233971 264.16056469 298.49285674 C264.1669284 302.28558729 264.17336559 306.07831772 264.17983107 309.87104811 C264.22549948 336.73824217 264.26194468 363.60544162 264.29296875 390.47265625 C264.32313019 416.5745523 264.35746756 442.67643739 264.39746094 468.77832031 C264.39869194 469.58282729 264.39992294 470.38733427 264.40119125 471.21622025 C264.41355806 479.29537521 264.42600978 487.37453004 264.43852373 495.45368477 C264.46401439 511.91200371 264.48893821 528.37032348 264.51351929 544.8286438 C264.5146502 545.58537859 264.51578111 546.34211338 264.51694628 547.12177953 C264.59240755 597.65929871 264.65461367 648.19683563 264.71484375 698.734375 C265.43438232 698.31925659 266.1539209 697.90413818 266.89526367 697.47644043 C295.05505371 681.23040771 295.05505371 681.23040771 323.21484375 664.984375 C324.28718262 664.36570557 325.35952148 663.74703613 326.46435547 663.10961914 C328.63260639 661.8587302 330.80090072 660.60791648 332.96923828 659.35717773 C338.3620229 656.24639165 343.75406468 653.13433262 349.14453125 650.01953125 C360.31933592 643.56418292 371.50649235 637.13126761 382.71484375 630.734375 C401.1444225 620.21506217 419.52382271 609.61184173 437.8371582 598.89135742 C446.06686831 594.08571236 454.35530614 589.38766764 462.6706543 584.73193359 C463.58113525 584.22098145 464.49161621 583.7100293 465.4296875 583.18359375 C466.235271 582.73330811 467.04085449 582.28302246 467.87084961 581.8190918 C469.66587515 580.86699578 469.66587515 580.86699578 470.71484375 579.734375 C470.8129981 578.25717664 470.84147176 576.77529346 470.8423357 575.29483795 C470.84534335 574.33001322 470.848351 573.36518849 470.85144979 572.37112665 C470.84969942 571.29849494 470.84794904 570.22586324 470.84614563 569.12072754 C470.84826134 567.99099565 470.85037706 566.86126376 470.85255688 565.69729757 C470.85858885 561.87956908 470.85755446 558.06187334 470.85668945 554.24414062 C470.85914519 551.5197127 470.86316513 548.79528777 470.86721802 546.07086182 C470.87534396 540.18699654 470.88027942 534.30313561 470.88350868 528.41926575 C470.88899922 519.11652802 470.90589171 509.81382709 470.92485046 500.5111084 C470.9312079 497.32971961 470.93751628 494.14833072 470.94382763 490.96694183 C470.94541139 490.17175897 470.94699515 489.3765761 470.94862691 488.55729678 C470.9665771 479.49783592 470.98279552 470.43837245 470.99780273 461.37890625 C470.99917861 460.55044164 471.00055448 459.72197703 471.00197204 458.86840743 C471.0238806 445.45651046 471.0346524 432.04462292 471.04217348 418.63271123 C471.05024957 404.86565271 471.07355857 391.09867502 471.11012715 377.33166265 C471.1321385 368.83964108 471.14182098 360.3477858 471.13562682 351.85573715 C471.13244786 346.03082031 471.14381106 340.20604522 471.16652123 334.38117224 C471.1791678 331.02198248 471.18319974 327.6633719 471.17410469 324.30413055 C471.16522825 320.65706411 471.18089284 317.01088595 471.20259094 313.3638916 C471.19414841 312.30910567 471.18570587 311.25431973 471.1770075 310.16757059 C471.25566745 303.00896517 472.36497978 296.53667032 477.23869115 291.00471735 C482.21698828 286.27130771 488.60171131 283.22977207 494.58984375 279.984375 C496.85233642 278.73838343 499.11405495 277.49098515 501.375 276.2421875 C502.4695752 275.63922852 503.56415039 275.03626953 504.69189453 274.41503906 C508.50915404 272.29276362 512.27605117 270.09560287 516.02734375 267.859375 C523.35490534 263.50513172 530.74778265 259.26835232 538.15234375 255.046875 C555.78715642 244.98950467 573.38037754 234.86231623 590.90234375 224.609375 C599.58332697 219.53055966 608.31593439 214.55200922 617.08203125 209.62182617 C623.89253713 205.78396712 630.65694006 201.87291319 637.40234375 197.921875 C646.10131426 192.82672304 654.83207275 187.79012823 663.58984375 182.796875 C672.6857342 177.61010807 681.77183252 172.40732684 690.83984375 167.171875 C691.89139648 166.56504883 692.94294922 165.95822266 694.02636719 165.33300781 C699.0343351 162.44173078 704.04013647 159.54678068 709.04177856 156.64457703 C710.82412554 155.61068025 712.60703816 154.57776596 714.39013672 153.54516602 C716.62468952 152.25077007 718.85815934 150.95450199 721.09033203 149.65600586 C739.1452309 139.20415212 739.1452309 139.20415212 749.71484375 140.734375 C752.56347656 141.88378906 752.56347656 141.88378906 755.41796875 143.375 C756.46243164 143.9201123 757.50689453 144.46522461 758.58300781 145.02685547 C763.35172877 147.62682697 768.04464694 150.33692299 772.71484375 153.109375 C774.82095284 154.34878143 776.92775246 155.58701503 779.03515625 156.82421875 C780.12602539 157.46472168 781.21689453 158.10522461 782.34082031 158.76513672 C788.06752896 162.1075124 793.82862704 165.38950677 799.58984375 168.671875 C801.95985004 170.0230614 804.32961791 171.37466519 806.69921875 172.7265625 C807.57702499 173.22735573 807.57702499 173.22735573 808.4725647 173.73826599 C817.83416605 179.08237245 827.16367906 184.48232621 836.49707031 189.87548828 C841.90155016 192.99762103 847.30829093 196.11583381 852.71484375 199.234375 C859.1925126 202.97074415 865.66974358 206.70785847 872.14453125 210.44921875 C883.95113859 217.26940137 895.77511375 224.0576076 907.61956787 230.81173706 C916.65956083 235.96854108 925.66009696 241.18981269 934.64160156 246.44775391 C942.2639077 250.90354205 949.92043644 255.29784921 957.58984375 259.671875 C966.99174878 265.03632971 976.39230545 270.40294915 985.77734375 275.796875 C986.81681152 276.39169678 987.8562793 276.98651855 988.92724609 277.59936523 C1011.34834508 290.50468068 1011.34834508 290.50468068 1014.81964397 298.1758585 C1016.11598702 303.32896313 1015.99331631 308.31395308 1015.97554016 313.60813904 C1015.97936571 314.81297457 1015.98319126 316.01781011 1015.98713273 317.25915581 C1015.99565853 320.59562535 1015.99523195 323.93187421 1015.99095213 327.26833737 C1015.98848423 330.86963821 1015.99749984 334.47091322 1016.00498962 338.07220459 C1016.01773662 345.12433678 1016.01953034 352.17643089 1016.01718936 359.22857266 C1016.01540613 364.96063969 1016.01715595 370.69269517 1016.0214138 376.42476082 C1016.02200899 377.24065838 1016.02260418 378.05655595 1016.02321741 378.89717769 C1016.02442916 380.55468336 1016.02564329 382.21218904 1016.02685978 383.86969472 C1016.03773521 399.41236005 1016.03557275 414.95500368 1016.02947494 430.49767024 C1016.02430512 444.71571212 1016.03556291 458.93368551 1016.05457316 473.15171384 C1016.0739459 487.75283431 1016.08220859 502.35392237 1016.0784499 516.95505577 C1016.07653709 525.15167976 1016.07903333 533.34824543 1016.09316444 541.54485893 C1016.10507199 548.52228125 1016.10649015 555.49960935 1016.09437428 562.47703295 C1016.08848131 566.03639646 1016.08739758 569.59558758 1016.09937668 573.15493965 C1016.11221542 577.01458784 1016.10178097 580.8739742 1016.08906555 584.73362732 C1016.09643984 585.85697446 1016.10381412 586.9803216 1016.11141187 588.13770956 C1016.05645035 596.05290575 1014.91270777 602.07410807 1009.45166016 608.2109375 C1005.42158545 611.74589198 1000.57140199 614.15349708 995.90234375 616.734375 C994.7328129 617.39263385 993.56404216 618.05224484 992.39599609 618.71313477 C989.99958111 620.06835427 987.60051167 621.41868762 985.19970703 622.76611328 C980.04174284 625.6694761 974.94317748 628.6738869 969.83984375 631.671875 C960.024633 637.41389127 950.16016887 643.06761974 940.28222656 648.70068359 C932.37262122 653.21182352 924.4754352 657.74382794 916.58984375 662.296875 C915.52378906 662.91240234 914.45773437 663.52792969 913.359375 664.16210938 C910.14426852 666.01907694 906.92948997 667.87661079 903.71484375 669.734375 C889.76640007 677.79526804 875.80480487 685.83146926 861.81011963 693.81173706 C853.75221163 698.40831723 845.72066589 703.0476166 837.71484375 707.734375 C829.11961726 712.76618176 820.49173696 717.738291 811.83984375 722.671875 C802.30628292 728.10829998 792.78338106 733.56244054 783.27734375 739.046875 C781.64273193 739.9893811 781.64273193 739.9893811 779.97509766 740.95092773 C774.45676436 744.12246463 774.45676436 744.12246463 769.01538086 747.42260742 C766.71484375 748.734375 766.71484375 748.734375 764.71484375 748.734375 C764.71636263 749.32380874 764.71788151 749.91324248 764.71944642 750.52053785 C764.80896908 785.45929755 764.8775952 820.3980375 764.91910507 855.33688805 C764.92410786 859.53253493 764.92928515 863.72818159 764.93457031 867.92382812 C764.93614418 869.1767386 764.93614418 869.1767386 764.93774983 870.45496041 C764.95515254 883.97756537 764.98668949 897.50010227 765.02345493 911.02266687 C765.0608681 924.89925353 765.0830804 938.77580457 765.09119773 952.65243959 C765.09668473 961.21429916 765.11401158 969.77596636 765.14650962 978.33776671 C765.16766214 984.20983433 765.17404213 990.08180257 765.16884926 995.95390552 C765.16628854 999.34134906 765.17238895 1002.72818583 765.19166565 1006.11561584 C765.21155919 1009.79149754 765.20678409 1013.46655539 765.19586182 1017.14245605 C765.20751318 1018.20861885 765.21916455 1019.27478164 765.23116899 1020.37325239 C765.16867823 1028.15128815 763.71038644 1033.67855049 758.19140625 1039.30859375 C753.46819212 1042.84879448 748.21752191 1045.64684483 743.08984375 1048.546875 C741.34699646 1049.54252365 739.60415023 1050.53817415 737.86135864 1051.53392029 C735.42502314 1052.923988 732.9856328 1054.30865164 730.54638672 1055.69360352 C725.80945212 1058.38535934 721.079815 1061.08994498 716.34893799 1063.79232788 C714.57978469 1064.80261932 712.81016824 1065.81209615 711.04052734 1066.8215332 C703.57362862 1071.08351207 696.1345266 1075.39075352 688.71484375 1079.734375 C680.11961703 1084.7661819 671.49172245 1089.73826572 662.83984375 1094.671875 C653.74404388 1099.85879926 644.65772112 1105.06119006 635.58984375 1110.296875 C634.52378906 1110.91240234 633.45773437 1111.52792969 632.359375 1112.16210938 C629.14426852 1114.01907694 625.92948997 1115.87661079 622.71484375 1117.734375 C608.76640007 1125.79526804 594.80480487 1133.83146926 580.81011963 1141.81173706 C572.75221163 1146.40831723 564.72066589 1151.0476166 556.71484375 1155.734375 C548.11961703 1160.7661819 539.49172245 1165.73826572 530.83984375 1170.671875 C521.74404388 1175.85879926 512.65772112 1181.06119006 503.58984375 1186.296875 C502.52378906 1186.91240234 501.45773437 1187.52792969 500.359375 1188.16210938 C497.14426852 1190.01907694 493.92948997 1191.87661079 490.71484375 1193.734375 C476.81055796 1201.76974892 462.89449395 1209.78340498 448.94689941 1217.74334717 C437.25416758 1224.41723105 425.58973043 1231.13959782 413.93261719 1237.87548828 C407.44359279 1241.62415534 400.95147425 1245.36746167 394.45996094 1249.11181641 C389.06736061 1252.22255839 383.67546553 1255.33450827 378.28515625 1258.44921875 C366.47854891 1265.26940137 354.65457375 1272.0576076 342.81011963 1278.81173706 C334.75221163 1283.40831723 326.72066589 1288.0476166 318.71484375 1292.734375 C308.95685343 1298.44688552 299.15292264 1304.07627277 289.32788086 1309.67236328 C283.31766693 1313.09689737 277.31732325 1316.53703277 271.3359375 1320.01171875 C270.73865845 1320.35824997 270.14137939 1320.70478119 269.52600098 1321.06181335 C266.67338851 1322.71692349 263.82266895 1324.37503336 260.97509766 1326.03881836 C259.45601807 1326.92065796 259.45601807 1326.92065796 257.90625 1327.8203125 C257.02138916 1328.3364209 256.13652832 1328.8525293 255.22485352 1329.38427734 C248.93592751 1332.76699895 243.79766854 1333.67605384 236.71484375 1332.734375 C233.89672852 1331.59716797 233.89672852 1331.59716797 231.03125 1330.1015625 C229.98396729 1329.55532227 228.93668457 1329.00908203 227.85766602 1328.44628906 C223.0844161 1325.84627132 218.38846563 1323.13386029 213.71484375 1320.359375 C211.60873466 1319.11996857 209.50193504 1317.88173497 207.39453125 1316.64453125 C205.75822754 1315.68377686 205.75822754 1315.68377686 204.08886719 1314.70361328 C198.36215854 1311.3612376 192.60106046 1308.07924323 186.83984375 1304.796875 C184.46983746 1303.4456886 182.10006959 1302.09408481 179.73046875 1300.7421875 C179.14526459 1300.40832535 178.56006042 1300.0744632 177.9571228 1299.73048401 C166.44687377 1293.15981369 154.98106567 1286.51147647 143.50585938 1279.87988281 C140.284161 1278.01834828 137.06213296 1276.15738661 133.83984375 1274.296875 C132.24076172 1273.37358398 132.24076172 1273.37358398 130.609375 1272.43164062 C122.02488778 1267.47984458 113.41904082 1262.56612632 104.81011963 1257.65701294 C95.77012667 1252.50020892 86.76959054 1247.27893731 77.78808594 1242.02099609 C70.16578597 1237.56521156 62.50953064 1233.17040354 54.83984375 1228.796875 C40.36534006 1220.54271864 25.93262529 1212.21720128 11.50585938 1203.87988281 C8.284161 1202.01834828 5.06213296 1200.15738661 1.83984375 1198.296875 C0.24076172 1197.37358398 0.24076172 1197.37358398 -1.390625 1196.43164062 C-9.97511222 1191.47984458 -18.58095918 1186.56612632 -27.18988037 1181.65701294 C-36.22987333 1176.50020892 -45.23040946 1171.27893731 -54.21191406 1166.02099609 C-61.83421403 1161.56521156 -69.49046936 1157.17040354 -77.16015625 1152.796875 C-91.63465994 1144.54271864 -106.06737471 1136.21720128 -120.49414062 1127.87988281 C-123.715839 1126.01834828 -126.93786704 1124.15738661 -130.16015625 1122.296875 C-131.75923828 1121.37358398 -131.75923828 1121.37358398 -133.390625 1120.43164062 C-141.97511222 1115.47984458 -150.58095918 1110.56612632 -159.18988037 1105.65701294 C-168.22987333 1100.50020892 -177.23040946 1095.27893731 -186.21191406 1090.02099609 C-193.83421716 1085.56520972 -201.49061103 1081.17065549 -209.16015625 1076.796875 C-221.51623098 1069.74879325 -233.85983496 1062.68002302 -246.16455078 1055.54248047 C-248.26548197 1054.32518299 -250.36805573 1053.11071648 -252.47216797 1051.89892578 C-255.51850987 1050.14339873 -258.55873959 1048.3777167 -261.59765625 1046.609375 C-262.50499512 1046.08899658 -263.41233398 1045.56861816 -264.34716797 1045.0324707 C-271.76109521 1040.69266276 -277.4966101 1036.20227692 -280.28515625 1027.734375 C-280.86587826 1022.90038837 -280.82297059 1018.08034914 -280.78852081 1013.21925449 C-280.79269634 1011.7323369 -280.79862356 1010.24542337 -280.80613828 1008.7585189 C-280.82172345 1004.66716012 -280.81239039 1000.57617859 -280.79902647 996.48482591 C-280.78888739 992.03579963 -280.80191624 987.58683157 -280.8119998 983.13781351 C-280.82645755 975.33850643 -280.82600158 967.53931007 -280.81581116 959.73999786 C-280.80069884 948.14223074 -280.80840701 936.54455724 -280.82064439 924.94679077 C-280.84172481 904.23452238 -280.83987479 883.52230329 -280.82832874 862.81003019 C-280.81827375 844.68395545 -280.81563632 826.55789879 -280.82041931 808.43182182 C-280.82072485 807.23032886 -280.82103039 806.02883589 -280.82134519 804.79093405 C-280.82259051 799.91389546 -280.82386411 795.03685687 -280.82518425 790.1598183 C-280.83742556 744.39125661 -280.82631813 698.62272635 -280.80479666 652.85416951 C-280.78581487 612.17725827 -280.78751112 571.50039712 -280.80664062 530.82348633 C-280.82805219 485.14112102 -280.83655626 439.45878349 -280.82419157 393.77641386 C-280.82290867 388.90785723 -280.82165731 384.03930059 -280.82041931 379.17074394 C-280.820103 377.97194814 -280.81978669 376.77315233 -280.8194608 375.53802938 C-280.81490791 357.42250679 -280.82023762 339.30700426 -280.83033752 321.19148445 C-280.84176283 300.59576924 -280.83894036 280.00011112 -280.81721455 259.40440304 C-280.80545211 247.87292649 -280.80472754 236.34157351 -280.81979925 224.81010011 C-280.828752 217.11232813 -280.82321701 209.41465547 -280.80578017 201.71689823 C-280.7962436 197.32774147 -280.79305574 192.93883066 -280.8074041 188.54968143 C-280.8203251 184.55652264 -280.814837 180.56382798 -280.79468146 176.57070301 C-280.79065361 175.13536574 -280.79331538 173.69999004 -280.80350521 172.26468329 C-280.86244062 163.32897314 -280.52788096 155.48765945 -274.34765625 148.5637207 C-268.23357006 144.21771129 -261.87658369 140.49854806 -255.28515625 136.921875 C-253.04999736 135.69022358 -250.81562338 134.45714669 -248.58203125 133.22265625 C-247.50115234 132.62662598 -246.42027344 132.0305957 -245.30664062 131.41650391 C-241.34434292 129.21060287 -237.43237216 126.92782128 -233.53515625 124.609375 C-227.50514586 121.03003671 -221.44061112 117.51805096 -215.34765625 114.046875 C-204.07935196 107.62582429 -192.84638756 101.14432133 -181.61572266 94.65771484 C-176.17324731 91.51478706 -170.72913148 88.37470382 -165.28515625 85.234375 C-163.11848145 83.9843891 -160.95181479 82.73438908 -158.78515625 81.484375 C-145.78515625 73.984375 -132.78515625 66.484375 -119.78515625 58.984375 C-118.71281738 58.36570557 -117.64047852 57.74703613 -116.53564453 57.10961914 C-114.36739361 55.8587302 -112.19909928 54.60791648 -110.03076172 53.35717773 C-104.6379771 50.24639165 -99.24593532 47.13433262 -93.85546875 44.01953125 C-81.52032786 36.89389161 -69.16884347 29.79783431 -56.79272461 22.74365234 C-50.84313693 19.35066922 -44.90470237 15.93991317 -38.984375 12.49609375 C-37.79493371 11.80531815 -36.60548076 11.11456265 -35.41601562 10.42382812 C-33.18226856 9.12513797 -30.95037962 7.82324454 -28.72070312 6.51757812 C-10.52499734 -4.05481467 -10.52499734 -4.05481467 0 0 Z M-14.76171875 47.7421875 C-15.89480469 48.391875 -17.02789063 49.0415625 -18.1953125 49.7109375 C-19.43366592 50.42695853 -20.67194527 51.14310769 -21.91015625 51.859375 C-23.18732692 52.59405097 -24.46467271 53.32842259 -25.7421875 54.0625 C-34.5863065 59.15047454 -43.40043637 64.28981688 -52.20605469 69.4440918 C-59.83007755 73.90149323 -67.48847001 78.29720636 -75.16015625 82.671875 C-84.25595612 87.85879926 -93.34227888 93.06119006 -102.41015625 98.296875 C-103.47621094 98.91240234 -104.54226563 99.52792969 -105.640625 100.16210938 C-108.85573148 102.01907694 -112.07051003 103.87661079 -115.28515625 105.734375 C-129.18774352 113.76876734 -143.10166921 121.78223479 -157.04806519 129.74032593 C-166.69245452 135.24412031 -176.31625015 140.78297175 -185.93115234 146.33813477 C-196.02992548 152.17060218 -206.15317235 157.95982988 -216.28515625 163.734375 C-212.27862827 167.17298736 -208.09227724 169.62441543 -203.47265625 172.109375 C-196.21496381 176.07723284 -189.04416022 180.17339412 -181.91015625 184.359375 C-173.10772455 189.51834818 -164.27382386 194.61899751 -155.41015625 199.671875 C-140.93536741 207.9255283 -126.50293437 216.2515507 -112.07617188 224.58886719 C-108.8544735 226.45040172 -105.63244546 228.31136339 -102.41015625 230.171875 C-101.34410156 230.78740234 -100.27804687 231.40292969 -99.1796875 232.03710938 C-90.59520028 236.98890542 -81.98935332 241.90262368 -73.38043213 246.81173706 C-66.30279073 250.84913065 -59.24021095 254.91066677 -52.20703125 259.02514648 C-50.2736377 260.15613648 -48.3387611 261.28459542 -46.40234375 262.41040039 C-41.48604439 265.26906744 -36.58455681 268.14880757 -31.70965576 271.07739258 C-29.15845593 272.60493748 -26.59748063 274.11557277 -24.03466797 275.62353516 C-22.79524164 276.35802198 -21.5600974 277.09978827 -20.32958984 277.84912109 C-18.61509184 278.89209564 -16.88397707 279.90760416 -15.15234375 280.921875 C-14.16347168 281.51355469 -13.17459961 282.10523438 -12.15576172 282.71484375 C-8.43383132 284.03673364 -6.82348855 283.34055163 -3.28515625 281.734375 C-0.86366529 280.40682819 1.48598472 279.04673085 3.83984375 277.609375 C10.99968952 273.31749218 18.21905593 269.13845103 25.4743042 265.01031494 C34.91842191 259.6365573 44.33828645 254.22549233 53.71484375 248.734375 C63.48467829 243.01471145 73.30243921 237.38176 83.13696289 231.77441406 C91.15590056 227.20149504 99.15943233 222.60269939 107.15234375 217.984375 C114.82925021 213.54894385 122.5133095 209.12691032 130.21484375 204.734375 C141.26583957 198.43029386 152.28373857 192.06923537 163.30078125 185.70605469 C168.01802322 182.98176649 172.73605113 180.25884161 177.4543457 177.53637695 C179.6951679 176.24341794 181.93589585 174.95029557 184.17651367 173.65698242 C189.34973146 170.67175581 194.52588161 167.69215682 199.71484375 164.734375 C196.78509153 162.4468654 193.7748401 160.53458708 190.55078125 158.6875 C189.5246875 158.09775391 188.49859375 157.50800781 187.44140625 156.90039062 C186.33539062 156.26810547 185.229375 155.63582031 184.08984375 154.984375 C182.92301753 154.31473107 181.75635366 153.64480416 180.58984375 152.97460938 C178.16696863 151.58288731 175.74340029 150.19238396 173.31933594 148.80273438 C167.77794332 145.6246646 162.24696467 142.42854637 156.71484375 139.234375 C154.54561078 137.98300729 152.37633983 136.7317054 150.20703125 135.48046875 C145.89882724 132.99506598 141.59161586 130.50795523 137.28515625 128.01953125 C125.48024717 121.20032964 113.65833862 114.41243896 101.81515503 107.66003418 C92.65575065 102.43602366 83.53940006 97.1415811 74.44091797 91.81225586 C67.73301879 87.89103262 60.98711881 84.04320306 54.21484375 80.234375 C46.40495503 75.84131259 38.63681313 71.38393183 30.90234375 66.859375 C29.92958496 66.2907373 28.95682617 65.72209961 27.95458984 65.13623047 C25.94381176 63.96067337 23.93307029 62.78505366 21.92236328 61.609375 C20.86388184 60.990625 19.80540039 60.371875 18.71484375 59.734375 C18.13772644 59.39696289 17.56060913 59.05955078 16.96600342 58.71191406 C13.34573061 56.59614321 9.72263999 54.48532105 6.09609985 52.38031006 C4.3672008 51.37527802 2.64097423 50.36565319 0.91479492 49.35595703 C-0.12829834 48.75122559 -1.1713916 48.14649414 -2.24609375 47.5234375 C-3.17212402 46.98412598 -4.0981543 46.44481445 -5.05224609 45.88916016 C-9.15315599 43.76830909 -10.957964 45.55291937 -14.76171875 47.7421875 Z M737.30859375 189.70703125 C735.62443359 190.67382812 735.62443359 190.67382812 733.90625 191.66015625 C732.6757352 192.37231628 731.44526772 193.08455807 730.21484375 193.796875 C728.94292529 194.52902286 727.67078685 195.26078871 726.3984375 195.9921875 C723.12774198 197.87373156 719.85999484 199.7603291 716.59326172 201.64874268 C713.74940169 203.29235258 710.90393327 204.93317176 708.05859375 206.57421875 C704.87653934 208.40981305 701.69480778 210.24595338 698.51416016 212.08398438 C690.55461831 216.68181439 682.57507111 221.24389449 674.58984375 225.796875 C665.93788516 230.73034234 657.3100687 235.70256913 648.71484375 240.734375 C638.9398161 246.45685949 629.11697419 252.0928094 619.27734375 257.703125 C611.40946946 262.1899325 603.55661833 266.70207183 595.71484375 271.234375 C585.99376898 276.85220097 576.2525709 282.43367849 566.50085449 287.99804688 C556.21438895 293.86826235 545.95420822 299.78242915 535.71484375 305.734375 C538.79030964 308.15231176 541.98345146 310.10936351 545.38671875 312.03515625 C546.51335938 312.67517578 547.64 313.31519531 548.80078125 313.97460938 C549.39729492 314.31194092 549.99380859 314.64927246 550.60839844 314.99682617 C553.78793127 316.7952442 556.96223051 318.60285306 560.13671875 320.41015625 C561.1024884 320.95967453 561.1024884 320.95967453 562.08776855 321.52029419 C567.98878443 324.88186505 573.85569564 328.30038743 579.71484375 331.734375 C588.3097931 336.76665104 596.93796979 341.73826842 605.58984375 346.671875 C620.06434744 354.92603136 634.49706221 363.25154872 648.92382812 371.58886719 C652.1455265 373.45040172 655.36755454 375.31136339 658.58984375 377.171875 C659.65589844 377.78740234 660.72195313 378.40292969 661.8203125 379.03710938 C669.22265351 383.30700716 676.63976952 387.55036094 684.06307983 391.78363037 C693.4932839 397.16144311 702.90291088 402.5722183 712.27734375 408.046875 C713.2511499 408.612854 714.22495605 409.17883301 715.22827148 409.76196289 C719.93388389 412.50122901 724.61307905 415.27327585 729.25390625 418.12109375 C730.1245874 418.64727295 730.99526855 419.17345215 731.89233398 419.71557617 C733.51822789 420.69939934 735.1356308 421.69745132 736.74243164 422.7121582 C737.81738892 423.35737427 737.81738892 423.35737427 738.9140625 424.015625 C739.83964966 424.58893555 739.83964966 424.58893555 740.78393555 425.17382812 C744.42404167 426.2305589 747.30005537 423.95030423 750.49121094 422.2890625 C751.48797852 421.73476563 752.48474609 421.18046875 753.51171875 420.609375 C754.62619385 419.990625 755.74066895 419.371875 756.88891602 418.734375 C758.08102713 418.06795013 759.27300005 417.401278 760.46484375 416.734375 C761.07286835 416.39535156 761.68089294 416.05632812 762.30734253 415.70703125 C770.6869183 411.03464603 779.00637382 406.2730136 787.25390625 401.37109375 C792.8573022 398.04561698 798.50641842 394.79943247 804.15234375 391.546875 C805.259729 390.90878906 806.36711426 390.27070312 807.50805664 389.61328125 C809.77853454 388.30530809 812.04912475 386.99752987 814.31982422 385.68994141 C819.78654359 382.54105444 825.25056504 379.38749464 830.71484375 376.234375 C832.88411192 374.9830683 835.05338275 373.73176622 837.22265625 372.48046875 C841.53086026 369.99506598 845.83807164 367.50795523 850.14453125 365.01953125 C861.90690948 358.22475936 873.68499882 351.45844344 885.48278809 344.72540283 C896.07075082 338.68209022 906.63705397 332.60183627 917.19140625 326.5 C921.18861035 324.18974533 925.18988186 321.88686744 929.19650269 319.59300232 C931.6196735 318.20550463 934.04153029 316.81572205 936.46331787 315.42581177 C938.18017601 314.4417458 939.8989077 313.46095086 941.61767578 312.48022461 C942.65005371 311.88733643 943.68243164 311.29444824 944.74609375 310.68359375 C945.65939453 310.16112061 946.57269531 309.63864746 947.51367188 309.1003418 C949.8100897 307.79111118 949.8100897 307.79111118 951.71484375 305.734375 C951.00279785 305.32823975 950.29075195 304.92210449 949.55712891 304.50366211 C933.3243892 295.24245966 917.1142457 285.9435764 900.93261719 276.59326172 C895.52813734 273.47112897 890.12139657 270.35291619 884.71484375 267.234375 C878.2371749 263.49800585 871.75994392 259.76089153 865.28515625 256.01953125 C854.11035273 249.56418358 842.92330072 243.13108156 831.71484375 236.734375 C818.35658614 229.11076951 805.03196272 221.42960245 791.71484375 213.734375 C784.09018375 209.32971326 776.46357571 204.92847037 768.83349609 200.53320312 C765.71484625 198.73437644 762.59952313 196.92988241 759.484375 195.125 C757.56131852 194.01541596 755.63814734 192.90603066 753.71484375 191.796875 C752.38779419 191.02500854 752.38779419 191.02500854 751.03393555 190.23754883 C750.22738525 189.77372803 749.42083496 189.30990723 748.58984375 188.83203125 C747.88601563 188.42476807 747.1821875 188.01750488 746.45703125 187.59790039 C742.75538956 185.76316011 740.64491484 187.78357852 737.30859375 189.70703125 Z M-237.28515625 201.734375 C-237.54219187 278.73478749 -237.78069187 355.73525168 -237.92030334 432.73597717 C-237.9223742 433.87521233 -237.92444506 435.01444749 -237.92657867 436.18820492 C-237.97146999 460.94554589 -238.01302304 485.7028914 -238.05113619 510.4602437 C-238.0698466 522.60085683 -238.08929486 534.74146873 -238.10913086 546.88208008 C-238.11109225 548.09023099 -238.11305363 549.29838189 -238.11507445 550.54314343 C-238.17901986 589.71837274 -238.29170792 628.89327798 -238.42961456 668.06831087 C-238.57104868 708.31840072 -238.66342505 748.56831116 -238.6938811 788.81864531 C-238.69820356 794.50084276 -238.70308812 800.1830396 -238.7083149 805.86523628 C-238.70932624 806.98359821 -238.71033759 808.10196015 -238.71137958 809.25421183 C-238.72912066 827.2728605 -238.79873177 845.29095519 -238.88763676 863.30937775 C-238.97586605 881.41444068 -239.00969635 899.51895323 -238.98767691 917.6242237 C-238.97624859 928.38767054 -239.00684902 939.14910643 -239.0971194 949.91219092 C-239.15328245 957.09817206 -239.15517625 964.28283342 -239.11263345 971.46890496 C-239.0899352 975.56699814 -239.09112389 979.66128503 -239.15840399 983.75897299 C-240.17378158 998.97862437 -240.17378158 998.97862437 -235.83581169 1012.86984666 C-232.40825817 1016.10372624 -228.67498192 1017.75118117 -224.20610876 1019.08956463 C-221.03798269 1020.1530165 -218.38577768 1021.88204714 -215.5390625 1023.62109375 C-213.30936347 1024.889375 -211.07887668 1026.15627218 -208.84765625 1027.421875 C-206.38974986 1028.82008124 -203.93291224 1030.22015482 -201.4765625 1031.62109375 C-200.86672516 1031.96888885 -200.25688782 1032.31668396 -199.62857056 1032.67501831 C-193.82475133 1035.98941882 -188.05215038 1039.35634934 -182.28515625 1042.734375 C-173.69006808 1047.76641627 -165.06203259 1052.73826706 -156.41015625 1057.671875 C-141.93565256 1065.92603136 -127.50293779 1074.25154872 -113.07617188 1082.58886719 C-109.8544735 1084.45040172 -106.63244546 1086.31136339 -103.41015625 1088.171875 C-102.34410156 1088.78740234 -101.27804687 1089.40292969 -100.1796875 1090.03710938 C-91.59520028 1094.98890542 -82.98935332 1099.90262368 -74.38043213 1104.81173706 C-65.34043917 1109.96854108 -56.33990304 1115.18981269 -47.35839844 1120.44775391 C-39.1460045 1125.24849096 -30.8925425 1129.97577758 -22.62890625 1134.6875 C-13.0946242 1140.12371345 -3.58133421 1145.59532606 5.92089844 1151.08740234 C13.28706212 1155.3417468 20.66896564 1159.56786555 28.05859375 1163.78125 C38.2866971 1169.61306331 48.48074391 1175.4993973 58.64160156 1181.44775391 C66.26390153 1185.90353844 73.92015686 1190.29834646 81.58984375 1194.671875 C96.06434744 1202.92603136 110.49706221 1211.25154872 124.92382812 1219.58886719 C128.1455265 1221.45040172 131.36755454 1223.31136339 134.58984375 1225.171875 C136.18892578 1226.09516602 136.18892578 1226.09516602 137.8203125 1227.03710938 C145.22265351 1231.30700716 152.63976952 1235.55036094 160.06307983 1239.78363037 C169.49326472 1245.16143217 178.90415557 1250.57010814 188.27734375 1256.046875 C189.24897461 1256.6143042 190.22060547 1257.1817334 191.22167969 1257.76635742 C195.00354362 1259.97629198 198.78449255 1262.18771985 202.56103516 1264.40673828 C205.23523504 1265.97784821 207.91230953 1267.54395663 210.58984375 1269.109375 C211.38720947 1269.58028564 212.1845752 1270.05119629 213.00610352 1270.53637695 C216.61928975 1272.88541361 216.61928975 1272.88541361 220.71484375 1273.734375 C220.71484375 1194.864375 220.71484375 1115.994375 220.71484375 1034.734375 C208.33984375 1027.804375 208.33984375 1027.804375 195.71484375 1020.734375 C185.21484375 1014.734375 185.21484375 1014.734375 180.08984375 1011.796875 C174.15293272 1008.40435441 168.18458083 1005.06869157 162.21484375 1001.734375 C153.67094217 996.96229339 145.15675916 992.14277433 136.66796875 987.2734375 C129.874801 983.38280506 123.04938912 979.55177963 116.21484375 975.734375 C107.62050796 970.93343288 99.05286708 966.08964346 90.51196289 961.19433594 C84.23889937 957.60023885 77.94946884 954.03612696 71.65234375 950.484375 C63.62605323 945.95675902 55.61865629 941.39703374 47.62194824 936.81741333 C38.07344123 931.34937403 28.50724156 925.91553508 18.90234375 920.546875 C17.89002686 919.9804126 16.87770996 919.4139502 15.8347168 918.83032227 C11.73405092 916.5365956 7.63266 914.24428853 3.52539062 911.96240234 C0.39822909 910.22471939 -2.72492992 908.48001248 -5.84765625 906.734375 C-6.78134033 906.2185083 -7.71502441 905.7026416 -8.67700195 905.17114258 C-12.77228891 902.87546415 -16.81169677 900.51175775 -20.6875 897.859375 C-21.28941162 897.44945312 -21.89132324 897.03953125 -22.51147461 896.6171875 C-27.94142166 890.85314736 -28.86967406 884.55280521 -28.79296494 876.91056061 C-28.79926869 875.94571035 -28.80557244 874.98086009 -28.81206721 873.98677194 C-28.82833466 870.75253441 -28.81616113 867.51903699 -28.80413818 864.28479004 C-28.81001336 861.9432437 -28.81764036 859.60170121 -28.82686925 857.26016569 C-28.8450313 851.49947122 -28.84466046 845.73898536 -28.836514 839.97827291 C-28.82781041 833.07700318 -28.84234508 826.17583221 -28.85772528 819.2745811 C-28.88546057 806.53892737 -28.89465717 793.80332338 -28.8932724 781.06764221 C-28.89196203 768.45852152 -28.89890106 755.84944976 -28.91684723 743.24034119 C-28.91795862 742.45621883 -28.91907001 741.67209647 -28.92021507 740.86421282 C-28.92590219 736.88201889 -28.9317366 732.8998252 -28.9376277 728.91763157 C-28.97908477 700.71494927 -29.00206131 672.5122792 -29.01416016 644.30957031 C-29.02595601 616.91176974 -29.04612874 589.51399625 -29.07763672 562.11621094 C-29.07860467 561.2716275 -29.07957262 560.42704406 -29.0805699 559.55686719 C-29.09029976 551.07517961 -29.10019985 542.59349223 -29.11022467 534.11180499 C-29.13064234 516.8337744 -29.14992376 499.55574261 -29.16851807 482.27770996 C-29.1693744 481.48330155 -29.17023072 480.68889314 -29.171113 479.87041175 C-29.22816274 426.82508092 -29.258643 373.77972881 -29.28515625 320.734375 C-30.07051758 320.28634521 -30.85587891 319.83831543 -31.66503906 319.37670898 C-34.63990972 317.67924936 -37.61448174 315.98126858 -40.58886719 314.28295898 C-41.86479361 313.55456697 -43.14083134 312.82636989 -44.41699219 312.09838867 C-52.73256445 307.35458386 -61.02474294 302.57385848 -69.28515625 297.734375 C-82.56112719 289.96674952 -95.92129315 282.34930106 -109.28515625 274.734375 C-128.96352858 263.51404433 -148.60662415 252.23363156 -168.16015625 240.796875 C-179.66494038 234.07108899 -191.23104745 227.45475886 -202.81016541 220.85820007 C-207.29503868 218.30204419 -211.77331564 215.7345273 -216.25 213.1640625 C-218.19453007 212.04864954 -220.13917259 210.93343293 -222.0838623 209.81829834 C-223.33810459 209.09852555 -224.5919332 208.37803139 -225.84533691 207.65679932 C-227.57807514 206.65989656 -229.31243318 205.66581083 -231.046875 204.671875 C-232.03647217 204.10339844 -233.02606934 203.53492188 -234.0456543 202.94921875 C-236.00702509 201.65490445 -236.00702509 201.65490445 -237.28515625 201.734375 Z M214.9921875 204.3046875 C213.99147217 204.86397949 212.99075684 205.42327148 211.9597168 205.99951172 C210.32256714 206.92014404 210.32256714 206.92014404 208.65234375 207.859375 C207.52417236 208.49246582 206.39600098 209.12555664 205.23364258 209.77783203 C196.75533032 214.54564373 188.34128662 219.41952431 179.95092773 224.34033203 C172.23687077 228.86061527 164.48357142 233.30908156 156.71484375 237.734375 C148.02066212 242.68786946 139.349867 247.6781613 130.71484375 252.734375 C122.11967085 257.7662729 113.49172153 262.73826624 104.83984375 267.671875 C92.51459179 274.70041007 80.21762308 281.77677934 67.93261719 288.87548828 C62.52813725 291.99762107 57.12134268 295.11574027 51.71484375 298.234375 C47.42484375 300.709375 43.13484375 303.184375 38.71484375 305.734375 C30.13484375 310.684375 21.55484375 315.634375 12.71484375 320.734375 C12.71484375 493.324375 12.71484375 665.914375 12.71484375 843.734375 C16.55731207 842.19738767 19.79139999 840.64793829 23.34375 838.6015625 C24.44686523 837.96847168 25.54998047 837.33538086 26.68652344 836.68310547 C27.88349217 835.99191155 29.08043147 835.30066666 30.27734375 834.609375 C31.52747816 833.89045534 32.77780714 833.17187391 34.02832031 832.45361328 C36.6284775 830.95989013 39.22778866 829.46470877 41.82666016 827.96875 C45.52776072 825.83994616 49.23529447 823.72259116 52.9453125 821.609375 C64.8812706 814.8091308 76.78672774 807.96093432 88.64208984 801.02075195 C97.44436035 795.87506648 106.29511679 790.81579827 115.15234375 785.765625 C123.0202178 781.27881763 130.87309777 776.76672742 138.71484375 772.234375 C147.14936462 767.35941205 155.59864396 762.51119085 164.06161499 757.68585205 C182.33837421 747.35738233 182.33837421 747.35738233 200.37286907 736.618595 C202.9113335 735.18739761 205.26942873 734.05669284 207.94041246 732.94767487 C216.15691424 729.35843102 216.15691424 729.35843102 221.69646128 722.66190681 C223.28816114 716.44298439 222.92092931 710.04213364 222.75917053 703.67672729 C222.76658788 701.51078916 222.78148043 699.34486593 222.80318636 697.17902386 C222.84116415 691.23663313 222.7732791 685.29946069 222.68795931 679.35773516 C222.61450085 672.94749356 222.63939148 666.53754302 222.65229797 660.1269989 C222.66120963 649.02381469 222.60849778 637.92235632 222.51225471 626.81960678 C222.41159794 615.17779355 222.34622096 603.53665821 222.32775688 591.89441299 C222.32658831 591.17004102 222.32541973 590.44566906 222.32421575 589.69934642 C222.31846393 586.02049313 222.31334047 582.34163925 222.30845886 578.66278471 C222.27276965 552.6181533 222.15828633 526.57440661 221.99731445 500.53027344 C221.84113211 475.23181863 221.72073448 449.93360609 221.64868164 424.63476562 C221.6464457 423.85468964 221.64420975 423.07461366 221.64190605 422.27089902 C221.61949084 414.43691884 221.59780206 406.6029368 221.57664544 398.76895313 C221.53353203 382.81080975 221.48557074 366.85268216 221.43467712 350.89456177 C221.43234319 350.16086396 221.43000927 349.42716615 221.42760461 348.67123508 C221.2712433 299.69190567 221.00152667 250.7130964 220.71484375 201.734375 C218.68694572 201.734375 216.69747074 203.35093999 214.9921875 204.3046875 Z M514.71484375 343.734375 C514.71484375 421.944375 514.71484375 500.154375 514.71484375 580.734375 C527.08984375 587.664375 527.08984375 587.664375 539.71484375 594.734375 C548.02734375 599.609375 548.02734375 599.609375 552.04296875 601.9921875 C558.08224401 605.55692504 564.18401087 609.01322953 570.27734375 612.484375 C579.11747879 617.52133171 587.93499752 622.59270474 596.71484375 627.734375 C605.3099858 632.76632518 613.93796648 637.73826653 622.58984375 642.671875 C637.06434744 650.92603136 651.49706221 659.25154872 665.92382812 667.58886719 C677.97234768 674.55064095 690.02682167 681.50201298 702.10211182 688.41726685 C703.32976245 689.1205543 704.55710568 689.82437869 705.78411865 690.52877808 C707.49446871 691.51039669 709.20619447 692.4896171 710.91796875 693.46875 C711.89411133 694.02788086 712.87025391 694.58701172 713.87597656 695.16308594 C716.78394982 696.77262462 719.73840269 698.25616283 722.71484375 699.734375 C723.26315292 669.78152823 723.68748097 639.82885408 723.94041166 609.87209155 C723.97042616 606.33008404 724.00149013 602.78808645 724.03320312 599.24609375 C724.0426463 598.18843872 724.0426463 598.18843872 724.05228025 597.10941692 C724.15652583 585.71360286 724.34563443 574.32071455 724.56651086 562.92663245 C724.79150162 551.22207943 724.92436445 539.51905068 724.97296762 527.8124243 C725.00420381 521.24071121 725.0772905 514.67561516 725.25236511 508.10602951 C727.51925473 482.65096491 727.51925473 482.65096491 720.42996216 459.23560333 C714.97119025 454.06499298 709.02842085 451.64292901 701.85366821 449.71324539 C696.52629994 448.0518581 691.96362872 445.10810571 687.21484375 442.234375 C685.30796233 441.15305857 683.39816761 440.07684936 681.484375 439.0078125 C674.58252638 435.10641105 667.74012982 431.10504735 660.89746094 427.10107422 C643.93417449 417.1762123 626.88870371 407.39486995 609.81570435 397.66030884 C601.65000171 393.00306988 593.51389104 388.29784831 585.40234375 383.546875 C577.75024453 379.06572305 570.06722962 374.64693479 562.33984375 370.296875 C553.79386381 365.48595341 545.27502184 360.62997179 536.77734375 355.734375 C535.69340332 355.11119385 534.60946289 354.4880127 533.49267578 353.84594727 C528.97153278 351.23699638 524.48203388 348.6122747 520.0859375 345.796875 C517.08917014 343.56041176 517.08917014 343.56041176 514.71484375 343.734375 Z M966.30859375 346.6640625 C965.18122803 347.28925781 964.0538623 347.91445313 962.89233398 348.55859375 C961.66637558 349.24195734 960.4405484 349.92555638 959.21484375 350.609375 C958.59682892 350.95339355 957.97881409 351.29741211 957.34207153 351.65185547 C948.88554249 356.36082756 940.4893518 361.15745201 932.16796875 366.1015625 C926.60695729 369.4016447 921.00413063 372.62915358 915.40234375 375.859375 C914.30156494 376.49415771 913.20078613 377.12894043 912.06665039 377.78295898 C903.32877074 382.81580171 894.57205525 387.81522684 885.81259155 392.81036377 C877.75385634 397.40739725 869.72147993 402.04714004 861.71484375 406.734375 C853.11961703 411.7661819 844.49172245 416.73826572 835.83984375 421.671875 C823.54536611 428.68286087 811.27912531 435.74158099 799.02490234 442.82275391 C795.51251022 444.85122642 791.99865304 446.87714119 788.484375 448.90234375 C787.28726721 449.59235799 786.09016429 450.28238068 784.89306641 450.97241211 C782.62081403 452.28218255 780.34831785 453.59152672 778.07568359 454.90063477 C777.05297363 455.49030029 776.03026367 456.07996582 774.9765625 456.6875 C774.07897217 457.20473633 773.18138184 457.72197266 772.2565918 458.25488281 C770.99842651 458.98723145 770.99842651 458.98723145 769.71484375 459.734375 C768.84982144 460.06687665 767.98479914 460.3993783 767.09356403 460.74195576 C764.59931987 462.43444197 764.59931987 462.43444197 764.25768125 464.56364763 C764.07979391 467.08570854 764.07325961 469.56437527 764.11357117 472.09257507 C764.10929904 473.06294026 764.10502692 474.03330544 764.10062534 475.03307563 C764.09235958 478.29945013 764.11994033 481.56455347 764.1472168 484.83081055 C764.14862649 487.16619842 764.14783684 489.50158852 764.14500427 491.8369751 C764.14356565 498.19009338 764.17302822 504.54274272 764.20787406 510.89575171 C764.2359052 516.85844097 764.24098573 522.82111155 764.24613342 528.7838578 C764.25708039 540.59533313 764.29036535 552.40663594 764.33764648 564.21801758 C764.38353176 575.69261816 764.41892867 587.16717191 764.44018555 598.6418457 C764.44149916 599.34897548 764.44281278 600.05610527 764.44416621 600.78466322 C764.45069133 604.33207591 764.45700988 607.87948893 764.46322572 611.42690217 C764.51507122 640.86283771 764.60351868 670.29860452 764.71484375 699.734375 C766.63410886 698.7817352 768.55257483 697.82748529 770.47070312 696.87255859 C772.07335022 696.07572159 772.07335022 696.07572159 773.70837402 695.26278687 C777.3051372 693.434285 780.7660395 691.44922403 784.21484375 689.359375 C791.84758967 684.80416222 799.55314395 680.38200899 807.27734375 675.984375 C816.11781293 670.94801697 824.93500804 665.8760391 833.71484375 660.734375 C842.3099858 655.70242482 850.93796648 650.73048347 859.58984375 645.796875 C868.68564362 640.60995074 877.77196638 635.40755994 886.83984375 630.171875 C888.43892578 629.24858398 888.43892578 629.24858398 890.0703125 628.30664062 C893.28541898 626.44967306 896.50019753 624.59213921 899.71484375 622.734375 C914.25973856 614.32878911 928.81582099 605.94407003 943.41162109 597.62719727 C945.54420304 596.4109918 947.66454451 595.17302834 949.77101421 593.91213703 C952.60197205 592.27444758 955.46032535 590.98124884 958.48534107 589.74167919 C967.62053111 585.83116156 967.62053111 585.83116156 973.80024695 578.45538545 C975.5345157 571.65973375 975.09539843 564.68085307 974.87182617 557.72973633 C974.86646147 555.39317261 974.86948553 553.05657689 974.88023376 550.72003174 C974.88567199 544.39780732 974.7742342 538.08247299 974.64132857 531.76184678 C974.5343735 525.81974284 974.51546619 519.87789223 974.49594299 513.93495568 C974.45445063 502.17108244 974.3282716 490.40972526 974.14819336 478.6472168 C973.97354471 467.22742222 973.83918127 455.80831321 973.75854492 444.38745117 C973.75355318 443.68242318 973.74856143 442.97739518 973.74341842 442.25100271 C973.71862106 438.71375909 973.694611 435.17651065 973.67099226 431.63925898 C973.47431317 402.33600991 973.13850356 373.03521939 972.71484375 343.734375 C970.53264645 343.734375 968.12635482 345.65531447 966.30859375 346.6640625 Z M490.28662109 617.64624023 C489.38379395 618.18966064 488.4809668 618.73308105 487.55078125 619.29296875 C486.52484863 619.89874756 485.49891602 620.50452637 484.44189453 621.12866211 C483.33571777 621.80292236 482.22954102 622.47718262 481.08984375 623.171875 C479.92272644 623.86702138 478.75457607 624.56043596 477.58544922 625.25219727 C475.15638178 626.69133441 472.73194697 628.13784562 470.31054688 629.58984375 C464.85929593 632.85108845 459.34768064 636.00749237 453.83984375 639.171875 C451.67835366 640.41921581 449.51689567 641.66661224 447.35546875 642.9140625 C439.85317453 647.23579408 432.33125288 651.52291909 424.81011963 655.81173706 C416.75221163 660.40831723 408.72066589 665.0476166 400.71484375 669.734375 C392.11961703 674.7661819 383.49172245 679.73826572 374.83984375 684.671875 C365.74404388 689.85879926 356.65772112 695.06119006 347.58984375 700.296875 C345.99076172 701.22016602 345.99076172 701.22016602 344.359375 702.16210938 C341.14426852 704.01907694 337.92948997 705.87661079 334.71484375 707.734375 C320.76640007 715.79526804 306.80480487 723.83146926 292.81011963 731.81173706 C284.75221163 736.40831723 276.72066589 741.0476166 268.71484375 745.734375 C260.11961703 750.7661819 251.49172245 755.73826572 242.83984375 760.671875 C233.74404388 765.85879926 224.65772112 771.06119006 215.58984375 776.296875 C214.52378906 776.91240234 213.45773437 777.52792969 212.359375 778.16210938 C209.14426852 780.01907694 205.92948997 781.87661079 202.71484375 783.734375 C188.76640007 791.79526804 174.80480487 799.83146926 160.81011963 807.81173706 C152.75221163 812.40831723 144.72066589 817.0476166 136.71484375 821.734375 C126.9398161 827.45685949 117.11697419 833.0928094 107.27734375 838.703125 C99.40946932 843.18993258 91.55663509 847.70210063 83.71484375 852.234375 C71.00061073 859.58137767 58.25288551 866.86894955 45.49853516 874.14599609 C42.23647204 876.00733468 38.97545495 877.8704945 35.71484375 879.734375 C35.71484375 880.394375 35.71484375 881.054375 35.71484375 881.734375 C36.36219482 882.09563477 37.0095459 882.45689453 37.67651367 882.82910156 C49.78229317 889.58809951 61.87187708 896.37126902 73.90161133 903.26489258 C80.28566331 906.92198796 86.68362181 910.55376095 93.08984375 914.171875 C94.05011475 914.71424805 95.01038574 915.25662109 95.99975586 915.81542969 C99.83868022 917.98300531 103.67812689 920.14965296 107.51806641 922.31542969 C118.29848726 928.39610987 129.06477843 934.50016139 139.8057251 940.65032959 C151.40574021 947.29223213 163.04554575 953.85932623 174.71484375 960.37890625 C190.57835748 969.24336004 206.37061257 978.23293865 222.13793945 987.26708984 C224.33514155 988.52503603 226.53480183 989.77870176 228.73730469 991.02734375 C230.62473099 992.10941039 232.49972091 993.21371588 234.35644531 994.34765625 C235.13729492 994.81558594 235.91814453 995.28351563 236.72265625 995.765625 C237.38152832 996.17361328 238.04040039 996.58160156 238.71923828 997.00195312 C241.44797404 998.00344655 242.95401069 997.58188166 245.71484375 996.734375 C248.22099057 995.58404312 248.22099057 995.58404312 250.7578125 994.1015625 C251.73532471 993.55064941 252.71283691 992.99973633 253.7199707 992.43212891 C255.29524536 991.52986572 255.29524536 991.52986572 256.90234375 990.609375 C258.00731201 989.98337402 259.11228027 989.35737305 260.25073242 988.71240234 C263.74412708 986.72893789 267.23104851 984.73462841 270.71484375 982.734375 C271.7915332 982.11626953 272.86822266 981.49816406 273.97753906 980.86132812 C279.34160207 977.77686845 284.69942204 974.68173522 290.0546875 971.58203125 C299.81324144 965.93719392 309.60814742 960.35591781 319.39996338 954.76907349 C323.54505543 952.40356435 327.68718455 950.03292409 331.828125 947.66015625 C343.01017017 941.25509478 354.2082153 934.88292597 365.46484375 928.609375 C374.60929946 923.51222902 383.66843467 918.28438754 392.69628906 912.98388672 C400.85602871 908.20514413 409.09692482 903.58260814 417.359375 898.984375 C424.5283807 894.98473048 431.63577138 890.89089456 438.71484375 886.734375 C447.86397664 881.36240707 457.08887506 876.14360975 466.359375 870.984375 C473.5283807 866.98473048 480.63577138 862.89089456 487.71484375 858.734375 C496.86538436 853.36158051 506.0915275 848.1416506 515.36376953 842.98217773 C522.49112642 839.00621865 529.55423467 834.93273502 536.58984375 830.796875 C546.19049879 825.15538337 555.89436627 819.72224886 565.64355469 814.34228516 C574.10236187 809.66193913 582.46321015 804.83251166 590.796875 799.93359375 C597.88645523 795.77537232 605.0329047 791.7307137 612.21484375 787.734375 C620.43686965 783.158711 628.60065805 778.49866752 636.71484375 773.734375 C645.84727475 768.37221368 655.0546916 763.16175863 664.30883789 758.01293945 C674.8548905 752.13019221 685.27582062 746.03789233 695.68139648 739.91088867 C697.00375303 739.14579848 698.34839145 738.41760115 699.71484375 737.734375 C699.71484375 737.074375 699.71484375 736.414375 699.71484375 735.734375 C699.05291016 735.3532959 698.39097656 734.9722168 697.70898438 734.57958984 C694.54387361 732.75687378 691.37922262 730.93336128 688.21484375 729.109375 C687.63028412 728.77246643 687.04572449 728.43555786 686.44345093 728.08843994 C678.12117205 723.29070589 669.81739048 718.46265551 661.52734375 713.609375 C653.79320152 709.08426785 646.02468711 704.62749514 638.21484375 700.234375 C629.3932316 695.27212412 620.6332124 690.21278059 611.89746094 685.10107422 C594.97649872 675.20097531 577.97382851 665.4430676 560.94744873 655.72567749 C546.36264772 647.40111718 531.82055118 639.00279052 517.28475952 630.59300232 C514.88228076 629.20330974 512.4792941 627.81449692 510.07623291 626.42581177 C508.37956915 625.44484323 506.68367168 624.4625497 504.98779297 623.48022461 C503.44889404 622.59089233 503.44889404 622.59089233 501.87890625 621.68359375 C500.52466553 620.89988403 500.52466553 620.89988403 499.14306641 620.1003418 C498.34175293 619.64957275 497.54043945 619.19880371 496.71484375 618.734375 C496.05484375 618.29077637 495.39484375 617.84717773 494.71484375 617.39013672 C492.63246338 616.4763637 492.63246338 616.4763637 490.28662109 617.64624023 Z M716.1484375 776.3046875 C714.72724609 777.14386719 714.72724609 777.14386719 713.27734375 778 C712.24609375 778.61359375 711.21484375 779.2271875 710.15234375 779.859375 C701.56313245 784.92401223 692.93082048 789.89117227 684.21484375 794.734375 C675.99252769 799.30950521 667.82901687 803.97008986 659.71484375 808.734375 C650.56571086 814.10634293 641.34081244 819.32514025 632.0703125 824.484375 C624.9013068 828.48401952 617.79391612 832.57785544 610.71484375 836.734375 C601.56571086 842.10634293 592.34081244 847.32514025 583.0703125 852.484375 C575.90130418 856.48402099 568.7939779 860.57795752 561.71484375 864.734375 C552.49190041 870.14805572 543.19734626 875.41871361 533.85717773 880.62719727 C521.67919487 887.41936808 509.57657545 894.33997234 497.5078125 901.32421875 C485.70977129 908.15041218 473.87785405 914.90226958 461.96972656 921.53466797 C453.82901219 926.08103046 445.77432086 930.76374507 437.73388672 935.48461914 C429.57394062 940.26336842 421.33292206 944.88605316 413.0703125 949.484375 C405.9013068 953.48401952 398.79391612 957.57785544 391.71484375 961.734375 C382.56571086 967.10634293 373.34081244 972.32514025 364.0703125 977.484375 C356.9013068 981.48401952 349.79391612 985.57785544 342.71484375 989.734375 C333.57080885 995.10334962 324.35132153 1000.31974135 315.08569336 1005.47558594 C306.84569461 1010.07231936 298.68314954 1014.79215348 290.55859375 1019.58984375 C281.69327472 1024.80698833 272.7194946 1029.73179119 263.71484375 1034.734375 C263.71484375 1113.934375 263.71484375 1193.134375 263.71484375 1274.734375 C270.64484375 1270.774375 270.64484375 1270.774375 277.71484375 1266.734375 C280.50336121 1265.18628387 283.29388032 1263.64371979 286.08984375 1262.109375 C294.174796 1257.64392063 302.1512225 1253.00307041 310.11987305 1248.33398438 C318.01981972 1243.71010989 325.95172584 1239.14531137 333.90234375 1234.609375 C334.79379089 1234.10070389 334.79379089 1234.10070389 335.70324707 1233.58175659 C339.70633291 1231.29792733 343.71054776 1229.01608184 347.71484375 1226.734375 C362.29705385 1218.41980424 376.84853807 1210.0532659 391.38427734 1201.65771484 C396.82675269 1198.51478706 402.27086852 1195.37470382 407.71484375 1192.234375 C409.88151855 1190.9843891 412.04818521 1189.73438908 414.21484375 1188.484375 C427.21484375 1180.984375 440.21484375 1173.484375 453.21484375 1165.984375 C454.28718262 1165.36570557 455.35952148 1164.74703613 456.46435547 1164.10961914 C458.63260639 1162.8587302 460.80090072 1161.60791648 462.96923828 1160.35717773 C468.3620229 1157.24639165 473.75406468 1154.13433262 479.14453125 1151.01953125 C490.90690948 1144.22475936 502.68499882 1137.45844344 514.48278809 1130.72540283 C527.25132515 1123.43747946 539.98560251 1116.09068331 552.71484375 1108.734375 C566.66328743 1100.67348196 580.62488263 1092.63728074 594.61956787 1084.65701294 C602.67747587 1080.06043277 610.70902161 1075.4211334 618.71484375 1070.734375 C627.31007047 1065.7025681 635.93796505 1060.73048428 644.58984375 1055.796875 C656.89457949 1048.7800394 669.17106292 1041.7154362 681.43554688 1034.62841797 C684.85581181 1032.65295524 688.2773001 1030.67962728 691.69921875 1028.70703125 C692.86442244 1028.03524087 694.02962428 1027.36344728 695.19482422 1026.69165039 C697.37603812 1025.43415062 699.55734532 1024.17681265 701.73876953 1022.91967773 C703.68474649 1021.79745693 705.6193371 1020.6551198 707.53870773 1019.48797703 C710.71484375 1017.734375 710.71484375 1017.734375 713.87254715 1016.66022396 C717.71220785 1015.14916152 719.92802775 1013.80932981 722.71484375 1010.734375 C725.07343704 1003.62520404 724.22600786 995.56145577 724.07714844 988.18383789 C724.0737627 985.84786148 724.07566523 983.5118723 724.0824585 981.17590332 C724.08590197 974.83862355 724.01535327 968.50406881 723.93157101 962.16742253 C723.86415856 956.21499828 723.85209081 950.2626784 723.83974853 944.30992394 C723.81350969 932.52242726 723.73372104 920.73592927 723.62011719 908.94897461 C723.50990278 897.50175969 723.42499529 886.05481639 723.37402344 874.60717773 C723.37087076 873.90109885 723.36771807 873.19501996 723.36446986 872.46754474 C723.34880896 868.925216 723.33364457 865.38288534 723.31872702 861.8405534 C723.19440403 832.47118352 722.98222153 803.10278993 722.71484375 773.734375 C719.94369286 773.734375 718.52963397 774.88767478 716.1484375 776.3046875 Z " fill="#FF2C1F" transform="translate(534.28515625,224.265625)"/>
</svg>
