<?xml version="1.0" encoding="UTF-8"?>
<svg id="Layer_1" data-name="Layer 1" xmlns="http://www.w3.org/2000/svg" viewBox="0 0 738.81 832.1">
  <defs>
    <style>
      .cls-1 {
        fill: #117646;
      }

      .cls-2 {
        fill: #fcfdfd;
      }
    </style>
  </defs>
  <path class="cls-1" d="M354.92,19.64c20.44-2.6,41.61-.03,60.11,9.15,84.33,54.41,183.09,97.66,265.7,153.48,29.67,20.04,45.77,45,48.27,81.52-5.23,99.21,6.72,205.14,0,303.56-2.37,34.8-18.49,61.48-46.86,81.18-88.55,44.9-174.06,107.81-262.47,151.44-25.71,12.69-50.72,16.5-78.72,7.98-97.65-51.4-192.34-109.13-287.83-164.67-25.99-20.16-37.75-46.79-39.83-79.43-6.17-96.47,4.83-199.4,0-296.55,2.04-31.96,12.89-57.56,37.82-77.94,90.28-48.46,180.15-113.1,271.51-158.18,9.49-4.68,21.83-10.2,32.32-11.53ZM397.44,552.37c115.68-65.34,64.48-210.86,3.9-297.67-6.69-9.58-18.72-27.11-26.7-34.68-1.25-1.18-2.04-3.03-4.22-2.57-75.31,82.05-152.51,255.92-31.4,332.9,1.99,1.26,5.8,1.71,5.8,2.02v60.51c0,.19,2.44,2.63,2.63,2.63h47.35c.19,0,2.63-2.44,2.63-2.63v-60.51Z"/>
  <g>
    <path class="cls-2" d="M397.44,552.37v60.51c0,.19-2.44,2.63-2.63,2.63h-47.35c-.19,0-2.63-2.44-2.63-2.63v-60.51c0-.31-3.81-.76-5.8-2.02-121.12-76.98-43.91-250.85,31.4-332.9,2.18-.47,2.97,1.39,4.22,2.57,7.98,7.57,20.01,25.11,26.7,34.68,60.58,86.8,111.79,232.33-3.9,297.67ZM372.88,303.31c-4.69-.45-2.82-.03-3.47,2.63-.72,2.99-1.38,7.39-1.78,10.54-8.09,63.52-11.8,130.59-17.56,194.66-.93,10.32-5.3,27.94-5,36.93.18,5.31,21.91,21.01,25.49,21.56,1.63.25,26.42-14.95,25.22-19.78l-22.91-246.54Z"/>
    <path class="cls-1" d="M372.88,303.31l22.91,246.54c1.2,4.83-23.59,20.03-25.22,19.78-3.58-.55-25.32-16.25-25.49-21.56-.3-8.99,4.07-26.61,5-36.93,5.76-64.07,9.46-131.14,17.56-194.66.4-3.15,1.05-7.55,1.78-10.54.64-2.66-1.22-3.08,3.47-2.63Z"/>
  </g>
</svg>