<?xml version="1.0" encoding="UTF-8"?>
<svg id="Layer_1" data-name="Layer 1" xmlns="http://www.w3.org/2000/svg" viewBox="0 0 810 796.5">
  <defs>
    <style>
      .cls-1 {
        fill: #fff;
      }
    </style>
  </defs>
  <path class="cls-1" d="M392.78,9.67c96.01-3,186.59,25.92,260.86,86.6,199.55,163.06,190.35,467.22-16.59,619.67-2.32,1.71-16.3,11.88-17.85,11.42l-309.8-468.49c-1.42-1.67-3.37-2.74-5.44-3.39-6.78-2.14-26.54-2.22-33.28-.13-4.17,1.29-6.64,4.51-8.83,8.09-.61,82.77-.83,166-1.34,248.75-.1,16.83-1.61,39.19-.01,55.26.48,4.86,5.2,12.31,10.12,13.41,3.76.84,24.95.57,28.76-.35,7.63-1.83,9.24-8.4,9.73-15.28,1.15-16.32-.22-34.91-.06-51.55.51-55.15.86-111.11,1.1-166.62l1.51-2.16,156.43,230.46,124.08,167.25c.12,1.42-7.81,5.67-9.45,6.53-90.59,47.25-212.24,52.71-307.86,18.02C99.6,703.56-7.64,522.51,22.38,337.29,51.96,154.72,207.01,15.47,392.78,9.67ZM550.32,531l-.03-149.73c0-20.56.91-41.34,0-61.73-1.83-19.88,2.6-44.67-.03-63.96-.7-5.17-4.58-9.58-9.49-11.11-5.65-1.76-24.5-1.84-29.96.22-11.98,4.51-8.63,17.72-9,27.78-2.24,61.08.05,122.62-.72,183.83,14.9,22.7,28.62,46.76,44.21,69.07,1.37,1.95,2.98,4.37,5.01,5.65Z"/>
</svg>