<?xml version="1.0" encoding="UTF-8"?>
<svg id="Layer_1" data-name="Layer 1" xmlns="http://www.w3.org/2000/svg" viewBox="0 0 810 825.62">
  <defs>
    <style>
      .cls-1 {
        fill: #fff;
      }

      .cls-2 {
        fill: #017acd;
      }
    </style>
  </defs>
  <path class="cls-2" d="M9.72,7.25h796.04v810.11H9.72V7.25ZM705.73,414.14c-51.87-65.4-189.84-48.19-199.91,44.3-5.95,54.69,13.79,90.92,59.04,116.6,24.08,13.67,72.2,29.77,89.5,45.88,20.2,18.81,13.09,48.27-11.43,58.43-18,7.46-44.65,5.95-61.72-2.91-14.53-7.54-27.47-23.51-36.5-36.96l-1.99-.69-55.2,31.62-4.12,4.19c-2.09,5.03,15.7,25.12,18.21,30.87,76.14,83.79,267.91,57.03,236.2-87.23-10.16-46.2-43.47-65.68-82.29-84.92-21.63-10.73-67.24-23.87-75.15-48.27-2.11-6.5-1.87-16.39.29-22.9,3.99-12.02,18.9-19.27,30.59-19.71,23.96-.9,37.08,11.7,49.15,31.03l1.83.48,55.46-38.35c2.09-4.36-11.29-16.07-11.97-21.47ZM184.74,448h101.6v297.27c0,.5-2.19,1.11-.69,2.06l1.36,1.35c.51-.05.92-1.35,1.35-1.35h73.34v-299.33h101.6l2.02-2.06v-61.79c0-.76-1.86-3.07-1.43-4.76l-274.34,7.26c2.33,20.47-1.09,38.88-6.89,56.6-.62,1.91.17,3.53,2.09,4.74Z"/>
  <g>
    <path class="cls-1" d="M705.73,414.14c.67,5.4,14.06,17.11,11.97,21.47l-55.46,38.35-1.83-.48c-12.07-19.33-25.19-31.93-49.15-31.03-11.69.44-26.6,7.69-30.59,19.71-2.16,6.51-2.4,16.39-.29,22.9,7.92,24.4,53.52,37.54,75.15,48.27,38.82,19.25,72.13,38.72,82.29,84.92,31.71,144.26-160.06,171.02-236.2,87.23-2.51-5.75-20.3-25.84-18.21-30.87l4.12-4.19,55.2-31.62,1.99.69c9.03,13.45,21.97,29.42,36.5,36.96,17.07,8.86,43.72,10.37,61.72,2.91,24.52-10.17,31.63-39.62,11.43-58.43-17.3-16.11-65.42-32.21-89.5-45.88-45.25-25.68-64.99-61.9-59.04-116.6,10.07-92.5,148.03-109.71,199.91-44.3Z"/>
    <path class="cls-1" d="M184.74,448c-1.92-1.21-2.3-2.73-2.09-4.74,1.99-19.12,3.75-43.44,1.42-63.92l279.81.05c-.43,1.69,1.43,4,1.43,4.76v61.79l-2.02,2.06h-101.6v299.33h-73.34c-.42,0-.83,1.3-1.35,1.35l-1.36-1.35c-1.51-.95.69-1.56.69-2.06v-297.27h-101.6Z"/>
  </g>
</svg>