<?xml version="1.0" encoding="UTF-8"?>
<svg version="1.1" xmlns="http://www.w3.org/2000/svg" width="1000" height="1000">
<path d="M0 0 C226.38 0 452.76 0 686 0 C686 226.38 686 452.76 686 686 C459.62 686 233.24 686 0 686 C0 459.62 0 233.24 0 0 Z M474 322 C473.07832031 322.44085938 472.15664063 322.88171875 471.20703125 323.3359375 C451.13195027 333.5858378 438.30077415 350.54323495 431.0078125 371.453125 C428.63854757 379.79146825 427.66402911 387.58296893 427.75 396.25 C427.75821777 397.25998047 427.76643555 398.26996094 427.77490234 399.31054688 C428.1221263 422.62308861 435.8084099 442.82411871 452 460 C459.82393556 467.59397353 468.47572506 473.69927255 478 479 C478.66676758 479.37447266 479.33353516 479.74894531 480.02050781 480.13476562 C490.510243 485.97460909 501.27759037 490.97061797 512.28662109 495.74658203 C520.03664537 499.11569474 527.73140511 502.58302607 535.375 506.1875 C536.37805176 506.6501123 537.38110352 507.11272461 538.41455078 507.58935547 C548.94896601 512.60565983 558.50943531 518.37512864 564 529 C566.53870561 536.61611684 566.34778023 547.37496469 562.9375 554.6875 C557.30349296 563.94673163 548.45033068 568.02906563 538.34375 571.1171875 C522.08613588 574.96732185 502.94949194 572.45102875 488.328125 564.53515625 C483.76137736 561.52386125 479.90347222 557.80993854 476 554 C474.82050781 552.89591797 474.82050781 552.89591797 473.6171875 551.76953125 C468.27182794 546.65066998 464.06351886 541.16965586 460 535 C452.60530493 538.56506409 445.50575731 542.51695298 438.4375 546.6875 C437.39916016 547.29674316 436.36082031 547.90598633 435.29101562 548.53369141 C432.19222398 550.35277565 429.09595482 552.17609303 426 554 C424.22021057 555.04584267 422.44027386 556.09143477 420.66015625 557.13671875 C416.77140381 559.4210402 412.88491857 561.70916487 409 564 C410.36104952 568.90870317 412.57383811 572.68664223 415.5625 576.75 C416.00795166 577.36198242 416.45340332 577.97396484 416.91235352 578.60449219 C436.60831196 605.27559321 464.7929063 621.47361829 497.26171875 627.44140625 C530.50127442 632.40823641 567.5906346 628.82665664 595.72265625 609.08984375 C598.2319495 607.13903308 600.62728321 605.11438079 603 603 C603.75925781 602.33484375 604.51851562 601.6696875 605.30078125 600.984375 C620.81941544 586.51103741 628.24715931 566.29303722 629.28515625 545.359375 C630.02342222 519.67507549 622.7170188 496.05466736 605 477 C583.84901454 457.01906906 555.82723919 445.53057186 529.53515625 433.90625 C496.89429303 419.455356 496.89429303 419.455356 491.6015625 406.078125 C489.19397035 397.76098848 489.36819369 389.4236549 493.15625 381.6171875 C496.90381662 375.30878369 501.77728071 371.51521222 508.8605957 369.46020508 C520.63698348 366.9269983 533.78621114 368.22974149 544.15234375 374.25 C549.90443878 378.13625231 553.89302435 383.48153605 558 389 C558.57105469 389.76054688 559.14210938 390.52109375 559.73046875 391.3046875 C560.14941406 391.86414063 560.56835938 392.42359375 561 393 C565.76628447 392.48739959 569.04243068 390.23947792 572.875 387.5625 C574.21336383 386.64817714 575.5519107 385.73412215 576.890625 384.8203125 C577.57189453 384.35141602 578.25316406 383.88251953 578.95507812 383.39941406 C581.53707054 381.63246319 584.14317214 379.90367652 586.75219727 378.17700195 C594.24045691 373.22094743 601.63715319 368.14033487 609 363 C608.66130233 357.53850005 605.37011798 354.25769514 602 350.25 C601.40985107 349.5391626 600.81970215 348.8283252 600.21166992 348.09594727 C583.22921515 327.84505762 562.49354592 315.78384964 536 313 C530.55878337 312.69307854 525.13635983 312.61019395 519.6875 312.625 C518.60307114 312.62531723 518.60307114 312.62531723 517.49673462 312.62564087 C501.77481903 312.67148242 488.30647207 315.07947178 474 322 Z M152 317 C151.82411526 321.10382139 151.6612995 325.20808158 151.5 329.3125 C151.45230469 330.42173828 151.40460938 331.53097656 151.35546875 332.67382812 C150.85182809 345.80445957 151 358.8221447 151 372 C180.37 372 209.74 372 240 372 C240 455.49 240 538.98 240 625 C260.46 625 280.92 625 302 625 C302 541.51 302 458.02 302 372 C331.37 372 360.74 372 391 372 C391 353.85 391 335.7 391 317 C372.33679521 316.14111725 372.33679521 316.14111725 353.68847656 315.87060547 C352.30465144 315.86924174 350.92082667 315.86745649 349.53700256 315.86529541 C345.84183356 315.86081731 342.14669316 315.86247522 338.45152378 315.8656745 C334.4853211 315.86827127 330.5191203 315.86583882 326.55291748 315.86428833 C319.85249412 315.86247808 313.15208182 315.86483289 306.45166016 315.86962891 C299.72932198 315.87438773 293.00700605 315.8745195 286.28466797 315.86962891 C241.51352881 315.83781482 196.76366423 316.16033454 152 317 Z " fill="#197ABF" transform="translate(157,157)"/>
</svg>
